<?xml version="1.0" encoding="UTF-8" standalone="no"?>
<!DOCTYPE svg PUBLIC "-//W3C//DTD SVG 1.1//EN"
 "http://www.w3.org/Graphics/SVG/1.1/DTD/svg11.dtd">
<!-- Generated by graphviz version 2.49.0 (20210829.0051)
 -->
<!-- Title: snakemake_dag Pages: 1 -->
<svg width="2132pt" height="1700pt"
 viewBox="0.00 0.00 2132.00 1700.00" xmlns="http://www.w3.org/2000/svg" xmlns:xlink="http://www.w3.org/1999/xlink">
<g id="graph0" class="graph" transform="scale(1 1) rotate(0) translate(4 1696)">
<title>snakemake_dag</title>
<polygon fill="white" stroke="transparent" points="-4,4 -4,-1696 2128,-1696 2128,4 -4,4"/>
<!-- 0 -->
<g id="node1" class="node">
<title>0</title>
<path fill="none" stroke="#567bd8" stroke-width="2" d="M1224,-36C1224,-36 1194,-36 1194,-36 1188,-36 1182,-30 1182,-24 1182,-24 1182,-12 1182,-12 1182,-6 1188,0 1194,0 1194,0 1224,0 1224,0 1230,0 1236,-6 1236,-12 1236,-12 1236,-24 1236,-24 1236,-30 1230,-36 1224,-36"/>
<text text-anchor="middle" x="1209" y="-15.5" font-family="sans" font-size="10.00">all</text>
</g>
<!-- 1 -->
<g id="node2" class="node">
<title>1</title>
<path fill="none" stroke="#d88d56" stroke-width="2" d="M46,-1332C46,-1332 12,-1332 12,-1332 6,-1332 0,-1326 0,-1320 0,-1320 0,-1308 0,-1308 0,-1302 6,-1296 12,-1296 12,-1296 46,-1296 46,-1296 52,-1296 58,-1302 58,-1308 58,-1308 58,-1320 58,-1320 58,-1326 52,-1332 46,-1332"/>
<text text-anchor="middle" x="29" y="-1311.5" font-family="sans" font-size="10.00">fastqc_1</text>
</g>
<!-- 1&#45;&gt;0 -->
<g id="edge9" class="edge">
<title>1&#45;&gt;0</title>
<path fill="none" stroke="grey" stroke-width="2" d="M29,-1295.95C29,-1269.29 29,-1216.11 29,-1171 29,-1171 29,-1171 29,-161 29,-116.87 36.07,-96.15 73,-72 120.01,-41.26 981.15,-23.29 1171.83,-19.68"/>
<polygon fill="grey" stroke="grey" stroke-width="2" points="1171.98,-23.18 1181.91,-19.49 1171.85,-16.18 1171.98,-23.18"/>
</g>
<!-- 2 -->
<g id="node3" class="node">
<title>2</title>
<path fill="none" stroke="#9fd856" stroke-width="2" d="M91,-1548C91,-1548 23,-1548 23,-1548 17,-1548 11,-1542 11,-1536 11,-1536 11,-1524 11,-1524 11,-1518 17,-1512 23,-1512 23,-1512 91,-1512 91,-1512 97,-1512 103,-1518 103,-1524 103,-1524 103,-1536 103,-1536 103,-1542 97,-1548 91,-1548"/>
<text text-anchor="middle" x="57" y="-1527.5" font-family="sans" font-size="10.00">irods_get_fastq</text>
</g>
<!-- 2&#45;&gt;1 -->
<g id="edge25" class="edge">
<title>2&#45;&gt;1</title>
<path fill="none" stroke="grey" stroke-width="2" d="M54.72,-1511.82C53.35,-1501.44 51.57,-1487.96 50,-1476 43.84,-1429.04 36.72,-1374.38 32.55,-1342.34"/>
<polygon fill="grey" stroke="grey" stroke-width="2" points="36.02,-1341.86 31.26,-1332.39 29.08,-1342.76 36.02,-1341.86"/>
</g>
<!-- 6 -->
<g id="node7" class="node">
<title>6</title>
<path fill="none" stroke="#d89556" stroke-width="2" d="M101,-1476C101,-1476 71,-1476 71,-1476 65,-1476 59,-1470 59,-1464 59,-1464 59,-1452 59,-1452 59,-1446 65,-1440 71,-1440 71,-1440 101,-1440 101,-1440 107,-1440 113,-1446 113,-1452 113,-1452 113,-1464 113,-1464 113,-1470 107,-1476 101,-1476"/>
<text text-anchor="middle" x="86" y="-1455.5" font-family="sans" font-size="10.00">fastp</text>
</g>
<!-- 2&#45;&gt;6 -->
<g id="edge29" class="edge">
<title>2&#45;&gt;6</title>
<path fill="none" stroke="grey" stroke-width="2" d="M64.17,-1511.7C67.43,-1503.81 71.37,-1494.3 75,-1485.55"/>
<polygon fill="grey" stroke="grey" stroke-width="2" points="78.32,-1486.68 78.91,-1476.1 71.85,-1484 78.32,-1486.68"/>
</g>
<!-- 3 -->
<g id="node4" class="node">
<title>3</title>
<path fill="none" stroke="#bed856" stroke-width="2" d="M100,-1620C100,-1620 14,-1620 14,-1620 8,-1620 2,-1614 2,-1608 2,-1608 2,-1596 2,-1596 2,-1590 8,-1584 14,-1584 14,-1584 100,-1584 100,-1584 106,-1584 112,-1590 112,-1596 112,-1596 112,-1608 112,-1608 112,-1614 106,-1620 100,-1620"/>
<text text-anchor="middle" x="57" y="-1599.5" font-family="sans" font-size="10.00">irods_check_status</text>
</g>
<!-- 3&#45;&gt;2 -->
<g id="edge26" class="edge">
<title>3&#45;&gt;2</title>
<path fill="none" stroke="grey" stroke-width="2" d="M57,-1583.7C57,-1575.98 57,-1566.71 57,-1558.11"/>
<polygon fill="grey" stroke="grey" stroke-width="2" points="60.5,-1558.1 57,-1548.1 53.5,-1558.1 60.5,-1558.1"/>
</g>
<!-- 4 -->
<g id="node5" class="node">
<title>4</title>
<path fill="none" stroke="#d85656" stroke-width="2" d="M97,-1692C97,-1692 17,-1692 17,-1692 11,-1692 5,-1686 5,-1680 5,-1680 5,-1668 5,-1668 5,-1662 11,-1656 17,-1656 17,-1656 97,-1656 97,-1656 103,-1656 109,-1662 109,-1668 109,-1668 109,-1680 109,-1680 109,-1686 103,-1692 97,-1692"/>
<text text-anchor="middle" x="57" y="-1671.5" font-family="sans" font-size="10.00">irods_get_content</text>
</g>
<!-- 4&#45;&gt;3 -->
<g id="edge27" class="edge">
<title>4&#45;&gt;3</title>
<path fill="none" stroke="grey" stroke-width="2" d="M57,-1655.7C57,-1647.98 57,-1638.71 57,-1630.11"/>
<polygon fill="grey" stroke="grey" stroke-width="2" points="60.5,-1630.1 57,-1620.1 53.5,-1630.1 60.5,-1630.1"/>
</g>
<!-- 5 -->
<g id="node6" class="node">
<title>5</title>
<path fill="none" stroke="#afd856" stroke-width="2" d="M103,-1260C103,-1260 69,-1260 69,-1260 63,-1260 57,-1254 57,-1248 57,-1248 57,-1236 57,-1236 57,-1230 63,-1224 69,-1224 69,-1224 103,-1224 103,-1224 109,-1224 115,-1230 115,-1236 115,-1236 115,-1248 115,-1248 115,-1254 109,-1260 103,-1260"/>
<text text-anchor="middle" x="86" y="-1239.5" font-family="sans" font-size="10.00">fastqc_2</text>
</g>
<!-- 5&#45;&gt;0 -->
<g id="edge1" class="edge">
<title>5&#45;&gt;0</title>
<path fill="none" stroke="grey" stroke-width="2" d="M82.16,-1223.61C76.6,-1196.94 67,-1144.27 67,-1099 67,-1099 67,-1099 67,-161 67,-116.47 75.54,-96.07 113,-72 158.47,-42.79 984.83,-23.71 1171.67,-19.76"/>
<polygon fill="grey" stroke="grey" stroke-width="2" points="1171.89,-23.26 1181.81,-19.55 1171.74,-16.26 1171.89,-23.26"/>
</g>
<!-- 6&#45;&gt;5 -->
<g id="edge28" class="edge">
<title>6&#45;&gt;5</title>
<path fill="none" stroke="grey" stroke-width="2" d="M86,-1439.85C86,-1402.83 86,-1315.18 86,-1270.39"/>
<polygon fill="grey" stroke="grey" stroke-width="2" points="89.5,-1270.23 86,-1260.23 82.5,-1270.23 89.5,-1270.23"/>
</g>
<!-- 11 -->
<g id="node12" class="node">
<title>11</title>
<path fill="none" stroke="#8fd856" stroke-width="2" d="M364,-1404C364,-1404 320,-1404 320,-1404 314,-1404 308,-1398 308,-1392 308,-1392 308,-1380 308,-1380 308,-1374 314,-1368 320,-1368 320,-1368 364,-1368 364,-1368 370,-1368 376,-1374 376,-1380 376,-1380 376,-1392 376,-1392 376,-1398 370,-1404 364,-1404"/>
<text text-anchor="middle" x="342" y="-1383.5" font-family="sans" font-size="10.00">bwa_mem</text>
</g>
<!-- 6&#45;&gt;11 -->
<g id="edge35" class="edge">
<title>6&#45;&gt;11</title>
<path fill="none" stroke="grey" stroke-width="2" d="M113.4,-1449.51C157.63,-1437.41 245.15,-1413.48 298.14,-1398.99"/>
<polygon fill="grey" stroke="grey" stroke-width="2" points="299.21,-1402.33 307.93,-1396.32 297.36,-1395.58 299.21,-1402.33"/>
</g>
<!-- 7 -->
<g id="node8" class="node">
<title>7</title>
<path fill="none" stroke="#68d856" stroke-width="2" d="M1543.5,-900C1543.5,-900 1460.5,-900 1460.5,-900 1454.5,-900 1448.5,-894 1448.5,-888 1448.5,-888 1448.5,-876 1448.5,-876 1448.5,-870 1454.5,-864 1460.5,-864 1460.5,-864 1543.5,-864 1543.5,-864 1549.5,-864 1555.5,-870 1555.5,-876 1555.5,-876 1555.5,-888 1555.5,-888 1555.5,-894 1549.5,-900 1543.5,-900"/>
<text text-anchor="middle" x="1502" y="-879.5" font-family="sans" font-size="10.00">collect_hs_metrics</text>
</g>
<!-- 7&#45;&gt;0 -->
<g id="edge14" class="edge">
<title>7&#45;&gt;0</title>
<path fill="none" stroke="grey" stroke-width="2" d="M1530.96,-863.83C1630.72,-802.28 1954,-581.61 1954,-307 1954,-307 1954,-307 1954,-161 1954,-106.3 1918.39,-95.51 1869,-72 1757.56,-18.95 1368.67,-17.61 1246.22,-18.55"/>
<polygon fill="grey" stroke="grey" stroke-width="2" points="1246.17,-15.05 1236.21,-18.64 1246.24,-22.05 1246.17,-15.05"/>
</g>
<!-- 8 -->
<g id="node9" class="node">
<title>8</title>
<path fill="none" stroke="#b6d856" stroke-width="2" d="M1007.5,-1116C1007.5,-1116 930.5,-1116 930.5,-1116 924.5,-1116 918.5,-1110 918.5,-1104 918.5,-1104 918.5,-1092 918.5,-1092 918.5,-1086 924.5,-1080 930.5,-1080 930.5,-1080 1007.5,-1080 1007.5,-1080 1013.5,-1080 1019.5,-1086 1019.5,-1092 1019.5,-1092 1019.5,-1104 1019.5,-1104 1019.5,-1110 1013.5,-1116 1007.5,-1116"/>
<text text-anchor="middle" x="969" y="-1095.5" font-family="sans" font-size="10.00">bqsr_postprocess</text>
</g>
<!-- 8&#45;&gt;7 -->
<g id="edge30" class="edge">
<title>8&#45;&gt;7</title>
<path fill="none" stroke="grey" stroke-width="2" d="M1019.52,-1093.87C1078.58,-1088.84 1178.37,-1076.02 1258,-1044 1344.04,-1009.4 1431.56,-942.17 1474.62,-906.52"/>
<polygon fill="grey" stroke="grey" stroke-width="2" points="1476.95,-909.13 1482.38,-900.03 1472.46,-903.76 1476.95,-909.13"/>
</g>
<!-- 13 -->
<g id="node14" class="node">
<title>13</title>
<path fill="none" stroke="#56b9d8" stroke-width="2" d="M2031.5,-828C2031.5,-828 1964.5,-828 1964.5,-828 1958.5,-828 1952.5,-822 1952.5,-816 1952.5,-816 1952.5,-804 1952.5,-804 1952.5,-798 1958.5,-792 1964.5,-792 1964.5,-792 2031.5,-792 2031.5,-792 2037.5,-792 2043.5,-798 2043.5,-804 2043.5,-804 2043.5,-816 2043.5,-816 2043.5,-822 2037.5,-828 2031.5,-828"/>
<text text-anchor="middle" x="1998" y="-807.5" font-family="sans" font-size="10.00">samtools_stats</text>
</g>
<!-- 8&#45;&gt;13 -->
<g id="edge37" class="edge">
<title>8&#45;&gt;13</title>
<path fill="none" stroke="grey" stroke-width="2" d="M1019.64,-1091.78C1086.2,-1084.29 1206.48,-1068.64 1307,-1044 1551.34,-984.11 1832.69,-876.81 1946.38,-831.79"/>
<polygon fill="grey" stroke="grey" stroke-width="2" points="1947.88,-834.95 1955.89,-828.01 1945.3,-828.45 1947.88,-834.95"/>
</g>
<!-- 14 -->
<g id="node15" class="node">
<title>14</title>
<path fill="none" stroke="#56d8a2" stroke-width="2" d="M2112,-756C2112,-756 2032,-756 2032,-756 2026,-756 2020,-750 2020,-744 2020,-744 2020,-732 2020,-732 2020,-726 2026,-720 2032,-720 2032,-720 2112,-720 2112,-720 2118,-720 2124,-726 2124,-732 2124,-732 2124,-744 2124,-744 2124,-750 2118,-756 2112,-756"/>
<text text-anchor="middle" x="2072" y="-735.5" font-family="sans" font-size="10.00">samtools_flagstat</text>
</g>
<!-- 8&#45;&gt;14 -->
<g id="edge38" class="edge">
<title>8&#45;&gt;14</title>
<path fill="none" stroke="grey" stroke-width="2" d="M1019.62,-1095.89C1235.98,-1090.47 2072,-1062.58 2072,-955 2072,-955 2072,-955 2072,-881 2072,-841 2072,-794.65 2072,-766.08"/>
<polygon fill="grey" stroke="grey" stroke-width="2" points="2075.5,-766.05 2072,-756.05 2068.5,-766.05 2075.5,-766.05"/>
</g>
<!-- 15 -->
<g id="node16" class="node">
<title>15</title>
<path fill="none" stroke="#568ad8" stroke-width="2" d="M148.5,-684C148.5,-684 107.5,-684 107.5,-684 101.5,-684 95.5,-678 95.5,-672 95.5,-672 95.5,-660 95.5,-660 95.5,-654 101.5,-648 107.5,-648 107.5,-648 148.5,-648 148.5,-648 154.5,-648 160.5,-654 160.5,-660 160.5,-660 160.5,-672 160.5,-672 160.5,-678 154.5,-684 148.5,-684"/>
<text text-anchor="middle" x="128" y="-663.5" font-family="sans" font-size="10.00">mosdepth</text>
</g>
<!-- 8&#45;&gt;15 -->
<g id="edge39" class="edge">
<title>8&#45;&gt;15</title>
<path fill="none" stroke="grey" stroke-width="2" d="M918.33,-1093.72C738.12,-1081.41 139,-1034.49 139,-955 139,-955 139,-955 139,-809 139,-768.88 134.58,-722.57 131.34,-694.03"/>
<polygon fill="grey" stroke="grey" stroke-width="2" points="134.81,-693.54 130.17,-684.02 127.86,-694.36 134.81,-693.54"/>
</g>
<!-- 16 -->
<g id="node17" class="node">
<title>16</title>
<path fill="none" stroke="#56d8c9" stroke-width="2" d="M379.5,-900C379.5,-900 310.5,-900 310.5,-900 304.5,-900 298.5,-894 298.5,-888 298.5,-888 298.5,-876 298.5,-876 298.5,-870 304.5,-864 310.5,-864 310.5,-864 379.5,-864 379.5,-864 385.5,-864 391.5,-870 391.5,-876 391.5,-876 391.5,-888 391.5,-888 391.5,-894 385.5,-900 379.5,-900"/>
<text text-anchor="middle" x="345" y="-879.5" font-family="sans" font-size="10.00">ngs_checkmate</text>
</g>
<!-- 8&#45;&gt;16 -->
<g id="edge40" class="edge">
<title>8&#45;&gt;16</title>
<path fill="none" stroke="grey" stroke-width="2" d="M918.19,-1093.46C824.65,-1086.43 628.99,-1069.17 566,-1044 485.75,-1011.93 407.88,-944.05 369.58,-907.51"/>
<polygon fill="grey" stroke="grey" stroke-width="2" points="371.65,-904.64 362.02,-900.22 366.79,-909.68 371.65,-904.64"/>
</g>
<!-- 17 -->
<g id="node18" class="node">
<title>17</title>
<path fill="none" stroke="#c6d856" stroke-width="2" d="M1034,-468C1034,-468 902,-468 902,-468 896,-468 890,-462 890,-456 890,-456 890,-444 890,-444 890,-438 896,-432 902,-432 902,-432 1034,-432 1034,-432 1040,-432 1046,-438 1046,-444 1046,-444 1046,-456 1046,-456 1046,-462 1040,-468 1034,-468"/>
<text text-anchor="middle" x="968" y="-447.5" font-family="sans" font-size="10.00">somatic_run_mpileup_tumor</text>
</g>
<!-- 8&#45;&gt;17 -->
<g id="edge41" class="edge">
<title>8&#45;&gt;17</title>
<path fill="none" stroke="grey" stroke-width="2" d="M969,-1079.95C969,-1053.29 969,-1000.11 969,-955 969,-955 969,-955 969,-593 969,-553 968.6,-506.65 968.3,-478.08"/>
<polygon fill="grey" stroke="grey" stroke-width="2" points="971.8,-478.01 968.2,-468.05 964.8,-478.09 971.8,-478.01"/>
</g>
<!-- 23 -->
<g id="node24" class="node">
<title>23</title>
<path fill="none" stroke="#a7d856" stroke-width="2" d="M739,-1044C739,-1044 587,-1044 587,-1044 581,-1044 575,-1038 575,-1032 575,-1032 575,-1020 575,-1020 575,-1014 581,-1008 587,-1008 587,-1008 739,-1008 739,-1008 745,-1008 751,-1014 751,-1020 751,-1020 751,-1032 751,-1032 751,-1038 745,-1044 739,-1044"/>
<text text-anchor="middle" x="663" y="-1023.5" font-family="sans" font-size="10.00">somatic_mutect2_tumor_normal</text>
</g>
<!-- 8&#45;&gt;23 -->
<g id="edge51" class="edge">
<title>8&#45;&gt;23</title>
<path fill="none" stroke="grey" stroke-width="2" d="M918.47,-1085.44C872.05,-1074.82 802.33,-1058.87 747.45,-1046.32"/>
<polygon fill="grey" stroke="grey" stroke-width="2" points="747.91,-1042.83 737.38,-1044.02 746.35,-1049.66 747.91,-1042.83"/>
</g>
<!-- 26 -->
<g id="node27" class="node">
<title>26</title>
<path fill="none" stroke="#8fd856" stroke-width="2" d="M929,-1044C929,-1044 781,-1044 781,-1044 775,-1044 769,-1038 769,-1032 769,-1032 769,-1020 769,-1020 769,-1014 775,-1008 781,-1008 781,-1008 929,-1008 929,-1008 935,-1008 941,-1014 941,-1020 941,-1020 941,-1032 941,-1032 941,-1038 935,-1044 929,-1044"/>
<text text-anchor="middle" x="855" y="-1023.5" font-family="sans" font-size="10.00">somatic_get_pileup_summaries</text>
</g>
<!-- 8&#45;&gt;26 -->
<g id="edge54" class="edge">
<title>8&#45;&gt;26</title>
<path fill="none" stroke="grey" stroke-width="2" d="M941.11,-1079.88C926.21,-1070.72 907.67,-1059.34 891.62,-1049.48"/>
<polygon fill="grey" stroke="grey" stroke-width="2" points="893.35,-1046.44 882.99,-1044.19 889.69,-1052.41 893.35,-1046.44"/>
</g>
<!-- 34 -->
<g id="node35" class="node">
<title>34</title>
<path fill="none" stroke="#5673d8" stroke-width="2" d="M1216.5,-972C1216.5,-972 1009.5,-972 1009.5,-972 1003.5,-972 997.5,-966 997.5,-960 997.5,-960 997.5,-948 997.5,-948 997.5,-942 1003.5,-936 1009.5,-936 1009.5,-936 1216.5,-936 1216.5,-936 1222.5,-936 1228.5,-942 1228.5,-948 1228.5,-948 1228.5,-960 1228.5,-960 1228.5,-966 1222.5,-972 1216.5,-972"/>
<text text-anchor="middle" x="1113" y="-951.5" font-family="sans" font-size="10.00">somatic_cnv_get_snp_pileup_tumor_normal</text>
</g>
<!-- 8&#45;&gt;34 -->
<g id="edge64" class="edge">
<title>8&#45;&gt;34</title>
<path fill="none" stroke="grey" stroke-width="2" d="M986.37,-1079.87C1011.78,-1054.82 1059.2,-1008.05 1088.25,-979.41"/>
<polygon fill="grey" stroke="grey" stroke-width="2" points="1090.91,-981.7 1095.57,-972.19 1085.99,-976.72 1090.91,-981.7"/>
</g>
<!-- 58 -->
<g id="node59" class="node">
<title>58</title>
<path fill="none" stroke="#56d8a9" stroke-width="2" d="M1237,-1044C1237,-1044 1143,-1044 1143,-1044 1137,-1044 1131,-1038 1131,-1032 1131,-1032 1131,-1020 1131,-1020 1131,-1014 1137,-1008 1143,-1008 1143,-1008 1237,-1008 1237,-1008 1243,-1008 1249,-1014 1249,-1020 1249,-1020 1249,-1032 1249,-1032 1249,-1038 1243,-1044 1237,-1044"/>
<text text-anchor="middle" x="1190" y="-1023.5" font-family="sans" font-size="10.00">somatic_msi_mantis</text>
</g>
<!-- 8&#45;&gt;58 -->
<g id="edge94" class="edge">
<title>8&#45;&gt;58</title>
<path fill="none" stroke="grey" stroke-width="2" d="M1019.7,-1080.94C1051.37,-1070.91 1092.4,-1057.91 1126.26,-1047.19"/>
<polygon fill="grey" stroke="grey" stroke-width="2" points="1127.59,-1050.44 1136.06,-1044.08 1125.47,-1043.77 1127.59,-1050.44"/>
</g>
<!-- 9 -->
<g id="node10" class="node">
<title>9</title>
<path fill="none" stroke="#b6d856" stroke-width="2" d="M627.5,-1188C627.5,-1188 576.5,-1188 576.5,-1188 570.5,-1188 564.5,-1182 564.5,-1176 564.5,-1176 564.5,-1164 564.5,-1164 564.5,-1158 570.5,-1152 576.5,-1152 576.5,-1152 627.5,-1152 627.5,-1152 633.5,-1152 639.5,-1158 639.5,-1164 639.5,-1164 639.5,-1176 639.5,-1176 639.5,-1182 633.5,-1188 627.5,-1188"/>
<text text-anchor="middle" x="602" y="-1167.5" font-family="sans" font-size="10.00">bqsr_step_2</text>
</g>
<!-- 9&#45;&gt;8 -->
<g id="edge31" class="edge">
<title>9&#45;&gt;8</title>
<path fill="none" stroke="grey" stroke-width="2" d="M639.55,-1161.84C703.02,-1149.73 832.03,-1125.12 908.42,-1110.55"/>
<polygon fill="grey" stroke="grey" stroke-width="2" points="909.22,-1113.97 918.38,-1108.65 907.91,-1107.09 909.22,-1113.97"/>
</g>
<!-- 10 -->
<g id="node11" class="node">
<title>10</title>
<path fill="none" stroke="#56b1d8" stroke-width="2" d="M573,-1332C573,-1332 499,-1332 499,-1332 493,-1332 487,-1326 487,-1320 487,-1320 487,-1308 487,-1308 487,-1302 493,-1296 499,-1296 499,-1296 573,-1296 573,-1296 579,-1296 585,-1302 585,-1308 585,-1308 585,-1320 585,-1320 585,-1326 579,-1332 573,-1332"/>
<text text-anchor="middle" x="536" y="-1311.5" font-family="sans" font-size="10.00">mark_duplicates</text>
</g>
<!-- 10&#45;&gt;9 -->
<g id="edge32" class="edge">
<title>10&#45;&gt;9</title>
<path fill="none" stroke="grey" stroke-width="2" d="M555.59,-1295.65C565.24,-1286.06 576.23,-1273.39 583,-1260 592.77,-1240.67 597.52,-1216.52 599.83,-1198.25"/>
<polygon fill="grey" stroke="grey" stroke-width="2" points="603.32,-1198.58 600.93,-1188.26 596.36,-1197.82 603.32,-1198.58"/>
</g>
<!-- 12 -->
<g id="node13" class="node">
<title>12</title>
<path fill="none" stroke="#61d856" stroke-width="2" d="M561.5,-1260C561.5,-1260 510.5,-1260 510.5,-1260 504.5,-1260 498.5,-1254 498.5,-1248 498.5,-1248 498.5,-1236 498.5,-1236 498.5,-1230 504.5,-1224 510.5,-1224 510.5,-1224 561.5,-1224 561.5,-1224 567.5,-1224 573.5,-1230 573.5,-1236 573.5,-1236 573.5,-1248 573.5,-1248 573.5,-1254 567.5,-1260 561.5,-1260"/>
<text text-anchor="middle" x="536" y="-1239.5" font-family="sans" font-size="10.00">bqsr_step_1</text>
</g>
<!-- 10&#45;&gt;12 -->
<g id="edge36" class="edge">
<title>10&#45;&gt;12</title>
<path fill="none" stroke="grey" stroke-width="2" d="M536,-1295.7C536,-1287.98 536,-1278.71 536,-1270.11"/>
<polygon fill="grey" stroke="grey" stroke-width="2" points="539.5,-1270.1 536,-1260.1 532.5,-1270.1 539.5,-1270.1"/>
</g>
<!-- 11&#45;&gt;10 -->
<g id="edge34" class="edge">
<title>11&#45;&gt;10</title>
<path fill="none" stroke="grey" stroke-width="2" d="M376.24,-1372.65C404.65,-1362.39 445.66,-1347.6 479.01,-1335.56"/>
<polygon fill="grey" stroke="grey" stroke-width="2" points="480.43,-1338.77 488.64,-1332.09 478.05,-1332.19 480.43,-1338.77"/>
</g>
<!-- 12&#45;&gt;9 -->
<g id="edge33" class="edge">
<title>12&#45;&gt;9</title>
<path fill="none" stroke="grey" stroke-width="2" d="M552.31,-1223.7C560.31,-1215.22 570.07,-1204.86 578.82,-1195.58"/>
<polygon fill="grey" stroke="grey" stroke-width="2" points="581.56,-1197.78 585.87,-1188.1 576.47,-1192.98 581.56,-1197.78"/>
</g>
<!-- 13&#45;&gt;0 -->
<g id="edge10" class="edge">
<title>13&#45;&gt;0</title>
<path fill="none" stroke="grey" stroke-width="2" d="M1996.81,-791.96C1995.07,-765.31 1992,-712.15 1992,-667 1992,-667 1992,-667 1992,-161 1992,-120.03 1999.63,-98.03 1968,-72 1911.9,-25.84 1391.71,-19.87 1246.49,-19.11"/>
<polygon fill="grey" stroke="grey" stroke-width="2" points="1246.32,-15.61 1236.31,-19.06 1246.29,-22.61 1246.32,-15.61"/>
</g>
<!-- 14&#45;&gt;0 -->
<g id="edge13" class="edge">
<title>14&#45;&gt;0</title>
<path fill="none" stroke="grey" stroke-width="2" d="M2067.75,-719.63C2061.61,-692.99 2051,-640.36 2051,-595 2051,-595 2051,-595 2051,-161 2051,-116.68 2042.97,-96.46 2006,-72 1942.12,-29.73 1394.82,-20.95 1246.14,-19.33"/>
<polygon fill="grey" stroke="grey" stroke-width="2" points="1246.17,-15.83 1236.14,-19.23 1246.1,-22.83 1246.17,-15.83"/>
</g>
<!-- 15&#45;&gt;0 -->
<g id="edge20" class="edge">
<title>15&#45;&gt;0</title>
<path fill="none" stroke="grey" stroke-width="2" d="M125.63,-647.99C122.13,-621.38 116,-568.28 116,-523 116,-523 116,-523 116,-161 116,-120.03 108.1,-97.71 140,-72 181,-38.95 987.86,-22.87 1171.86,-19.62"/>
<polygon fill="grey" stroke="grey" stroke-width="2" points="1171.93,-23.12 1181.87,-19.45 1171.81,-16.12 1171.93,-23.12"/>
</g>
<!-- 16&#45;&gt;0 -->
<g id="edge23" class="edge">
<title>16&#45;&gt;0</title>
<path fill="none" stroke="grey" stroke-width="2" d="M334.73,-863.85C295.06,-795.9 154,-538.05 154,-307 154,-307 154,-307 154,-161 154,-76.9 240.05,-94.81 321,-72 484.7,-25.88 1023.97,-19.89 1171.44,-19.11"/>
<polygon fill="grey" stroke="grey" stroke-width="2" points="1171.78,-22.61 1181.76,-19.06 1171.75,-15.61 1171.78,-22.61"/>
</g>
<!-- 17&#45;&gt;0 -->
<g id="edge24" class="edge">
<title>17&#45;&gt;0</title>
<path fill="none" stroke="grey" stroke-width="2" d="M1000.47,-431.94C1038.97,-409.09 1098,-364.66 1098,-307 1098,-307 1098,-307 1098,-233 1098,-192.55 1095.42,-180.97 1079,-144 1070.99,-125.96 1059.07,-126.78 1053,-108 1048.08,-92.78 1043.68,-85.01 1053,-72 1079.76,-34.65 1134.36,-23.3 1171.33,-20.03"/>
<polygon fill="grey" stroke="grey" stroke-width="2" points="1171.99,-23.5 1181.72,-19.29 1171.49,-16.51 1171.99,-23.5"/>
</g>
<!-- 32 -->
<g id="node33" class="node">
<title>32</title>
<path fill="none" stroke="#d88556" stroke-width="2" d="M1022.5,-324C1022.5,-324 907.5,-324 907.5,-324 901.5,-324 895.5,-318 895.5,-312 895.5,-312 895.5,-300 895.5,-300 895.5,-294 901.5,-288 907.5,-288 907.5,-288 1022.5,-288 1022.5,-288 1028.5,-288 1034.5,-294 1034.5,-300 1034.5,-300 1034.5,-312 1034.5,-312 1034.5,-318 1028.5,-324 1022.5,-324"/>
<text text-anchor="middle" x="965" y="-303.5" font-family="sans" font-size="10.00">somatic_maf_add_pileup</text>
</g>
<!-- 17&#45;&gt;32 -->
<g id="edge62" class="edge">
<title>17&#45;&gt;32</title>
<path fill="none" stroke="grey" stroke-width="2" d="M967.64,-431.87C967.13,-407.67 966.19,-363.21 965.58,-334.39"/>
<polygon fill="grey" stroke="grey" stroke-width="2" points="969.07,-334.11 965.36,-324.19 962.08,-334.26 969.07,-334.11"/>
</g>
<!-- 18 -->
<g id="node19" class="node">
<title>18</title>
<path fill="none" stroke="#565bd8" stroke-width="2" d="M924,-540C924,-540 822,-540 822,-540 816,-540 810,-534 810,-528 810,-528 810,-516 810,-516 810,-510 816,-504 822,-504 822,-504 924,-504 924,-504 930,-504 936,-510 936,-516 936,-516 936,-528 936,-528 936,-534 930,-540 924,-540"/>
<text text-anchor="middle" x="873" y="-519.5" font-family="sans" font-size="10.00">somatic_vcf2positions</text>
</g>
<!-- 18&#45;&gt;17 -->
<g id="edge42" class="edge">
<title>18&#45;&gt;17</title>
<path fill="none" stroke="grey" stroke-width="2" d="M896.48,-503.7C908.56,-494.8 923.45,-483.82 936.52,-474.2"/>
<polygon fill="grey" stroke="grey" stroke-width="2" points="938.81,-476.85 944.79,-468.1 934.66,-471.22 938.81,-476.85"/>
</g>
<!-- 19 -->
<g id="node20" class="node">
<title>19</title>
<path fill="none" stroke="#56c9d8" stroke-width="2" d="M787,-612C787,-612 623,-612 623,-612 617,-612 611,-606 611,-600 611,-600 611,-588 611,-588 611,-582 617,-576 623,-576 623,-576 787,-576 787,-576 793,-576 799,-582 799,-588 799,-588 799,-600 799,-600 799,-606 793,-612 787,-612"/>
<text text-anchor="middle" x="705" y="-591.5" font-family="sans" font-size="10.00">somatic_maf_filters_process_fields</text>
</g>
<!-- 19&#45;&gt;18 -->
<g id="edge43" class="edge">
<title>19&#45;&gt;18</title>
<path fill="none" stroke="grey" stroke-width="2" d="M746.1,-575.88C769.17,-566.26 798.14,-554.19 822.57,-544.01"/>
<polygon fill="grey" stroke="grey" stroke-width="2" points="824.15,-547.15 832.04,-540.07 821.46,-540.68 824.15,-547.15"/>
</g>
<!-- 29 -->
<g id="node30" class="node">
<title>29</title>
<path fill="none" stroke="#d8a456" stroke-width="2" d="M772,-540C772,-540 696,-540 696,-540 690,-540 684,-534 684,-528 684,-528 684,-516 684,-516 684,-510 690,-504 696,-504 696,-504 772,-504 772,-504 778,-504 784,-510 784,-516 784,-516 784,-528 784,-528 784,-534 778,-540 772,-540"/>
<text text-anchor="middle" x="734" y="-519.5" font-family="sans" font-size="10.00">somatic_vep_tab</text>
</g>
<!-- 19&#45;&gt;29 -->
<g id="edge58" class="edge">
<title>19&#45;&gt;29</title>
<path fill="none" stroke="grey" stroke-width="2" d="M712.17,-575.7C715.43,-567.81 719.37,-558.3 723,-549.55"/>
<polygon fill="grey" stroke="grey" stroke-width="2" points="726.32,-550.68 726.91,-540.1 719.85,-548 726.32,-550.68"/>
</g>
<!-- 31 -->
<g id="node32" class="node">
<title>31</title>
<path fill="none" stroke="#d86656" stroke-width="2" d="M653.5,-540C653.5,-540 578.5,-540 578.5,-540 572.5,-540 566.5,-534 566.5,-528 566.5,-528 566.5,-516 566.5,-516 566.5,-510 572.5,-504 578.5,-504 578.5,-504 653.5,-504 653.5,-504 659.5,-504 665.5,-510 665.5,-516 665.5,-516 665.5,-528 665.5,-528 665.5,-534 659.5,-540 653.5,-540"/>
<text text-anchor="middle" x="616" y="-519.5" font-family="sans" font-size="10.00">somatic_vep_vcf</text>
</g>
<!-- 19&#45;&gt;31 -->
<g id="edge60" class="edge">
<title>19&#45;&gt;31</title>
<path fill="none" stroke="grey" stroke-width="2" d="M683,-575.7C671.79,-566.88 658,-556.03 645.85,-546.47"/>
<polygon fill="grey" stroke="grey" stroke-width="2" points="647.77,-543.54 637.75,-540.1 643.44,-549.04 647.77,-543.54"/>
</g>
<!-- 36 -->
<g id="node37" class="node">
<title>36</title>
<path fill="none" stroke="#56a2d8" stroke-width="2" d="M437,-468C437,-468 293,-468 293,-468 287,-468 281,-462 281,-456 281,-456 281,-444 281,-444 281,-438 287,-432 293,-432 293,-432 437,-432 437,-432 443,-432 449,-438 449,-444 449,-444 449,-456 449,-456 449,-462 443,-468 437,-468"/>
<text text-anchor="middle" x="365" y="-447.5" font-family="sans" font-size="10.00">somatic_maf_filters_aggregate</text>
</g>
<!-- 19&#45;&gt;36 -->
<g id="edge70" class="edge">
<title>19&#45;&gt;36</title>
<path fill="none" stroke="grey" stroke-width="2" d="M654.25,-575.91C625.73,-566.01 589.63,-552.97 558,-540 506.23,-518.78 448.07,-491.47 409.25,-472.73"/>
<polygon fill="grey" stroke="grey" stroke-width="2" points="410.34,-469.37 399.82,-468.16 407.29,-475.67 410.34,-469.37"/>
</g>
<!-- 20 -->
<g id="node21" class="node">
<title>20</title>
<path fill="none" stroke="#d8b456" stroke-width="2" d="M825,-756C825,-756 637,-756 637,-756 631,-756 625,-750 625,-744 625,-744 625,-732 625,-732 625,-726 631,-720 637,-720 637,-720 825,-720 825,-720 831,-720 837,-726 837,-732 837,-732 837,-744 837,-744 837,-750 831,-756 825,-756"/>
<text text-anchor="middle" x="731" y="-735.5" font-family="sans" font-size="10.00">somatic_maf_filter_outside_intersection</text>
</g>
<!-- 20&#45;&gt;19 -->
<g id="edge44" class="edge">
<title>20&#45;&gt;19</title>
<path fill="none" stroke="grey" stroke-width="2" d="M752.71,-719.79C762.76,-710.41 773.64,-697.9 779,-684 784.76,-669.07 786.31,-662.23 779,-648 772.73,-635.79 762.19,-625.77 751.01,-617.85"/>
<polygon fill="grey" stroke="grey" stroke-width="2" points="752.67,-614.75 742.39,-612.2 748.84,-620.61 752.67,-614.75"/>
</g>
<!-- 27 -->
<g id="node28" class="node">
<title>27</title>
<path fill="none" stroke="#56d86b" stroke-width="2" d="M757.5,-684C757.5,-684 602.5,-684 602.5,-684 596.5,-684 590.5,-678 590.5,-672 590.5,-672 590.5,-660 590.5,-660 590.5,-654 596.5,-648 602.5,-648 602.5,-648 757.5,-648 757.5,-648 763.5,-648 769.5,-654 769.5,-660 769.5,-660 769.5,-672 769.5,-672 769.5,-678 763.5,-684 757.5,-684"/>
<text text-anchor="middle" x="680" y="-663.5" font-family="sans" font-size="10.00">somatic_maf_filters_vcf_to_table</text>
</g>
<!-- 20&#45;&gt;27 -->
<g id="edge55" class="edge">
<title>20&#45;&gt;27</title>
<path fill="none" stroke="grey" stroke-width="2" d="M718.39,-719.7C712.4,-711.47 705.12,-701.48 698.52,-692.42"/>
<polygon fill="grey" stroke="grey" stroke-width="2" points="701.18,-690.13 692.46,-684.1 695.52,-694.25 701.18,-690.13"/>
</g>
<!-- 21 -->
<g id="node22" class="node">
<title>21</title>
<path fill="none" stroke="#61d856" stroke-width="2" d="M812.5,-828C812.5,-828 649.5,-828 649.5,-828 643.5,-828 637.5,-822 637.5,-816 637.5,-816 637.5,-804 637.5,-804 637.5,-798 643.5,-792 649.5,-792 649.5,-792 812.5,-792 812.5,-792 818.5,-792 824.5,-798 824.5,-804 824.5,-804 824.5,-816 824.5,-816 824.5,-822 818.5,-828 812.5,-828"/>
<text text-anchor="middle" x="731" y="-807.5" font-family="sans" font-size="10.00">somatic_maf_filter_false_positives</text>
</g>
<!-- 21&#45;&gt;20 -->
<g id="edge46" class="edge">
<title>21&#45;&gt;20</title>
<path fill="none" stroke="grey" stroke-width="2" d="M731,-791.7C731,-783.98 731,-774.71 731,-766.11"/>
<polygon fill="grey" stroke="grey" stroke-width="2" points="734.5,-766.1 731,-756.1 727.5,-766.1 734.5,-766.1"/>
</g>
<!-- 22 -->
<g id="node23" class="node">
<title>22</title>
<path fill="none" stroke="#56d87b" stroke-width="2" d="M807,-900C807,-900 655,-900 655,-900 649,-900 643,-894 643,-888 643,-888 643,-876 643,-876 643,-870 649,-864 655,-864 655,-864 807,-864 807,-864 813,-864 819,-870 819,-876 819,-876 819,-888 819,-888 819,-894 813,-900 807,-900"/>
<text text-anchor="middle" x="731" y="-879.5" font-family="sans" font-size="10.00">somatic_maf_filter_mutect_calls</text>
</g>
<!-- 22&#45;&gt;21 -->
<g id="edge47" class="edge">
<title>22&#45;&gt;21</title>
<path fill="none" stroke="grey" stroke-width="2" d="M731,-863.7C731,-855.98 731,-846.71 731,-838.11"/>
<polygon fill="grey" stroke="grey" stroke-width="2" points="734.5,-838.1 731,-828.1 727.5,-838.1 734.5,-838.1"/>
</g>
<!-- 23&#45;&gt;22 -->
<g id="edge49" class="edge">
<title>23&#45;&gt;22</title>
<path fill="none" stroke="grey" stroke-width="2" d="M683.44,-1007.79C693.51,-998.25 704.96,-985.57 712,-972 721.97,-952.77 726.71,-928.61 728.96,-910.32"/>
<polygon fill="grey" stroke="grey" stroke-width="2" points="732.45,-910.62 730.02,-900.31 725.49,-909.88 732.45,-910.62"/>
</g>
<!-- 24 -->
<g id="node25" class="node">
<title>24</title>
<path fill="none" stroke="#88d856" stroke-width="2" d="M690.5,-972C690.5,-972 507.5,-972 507.5,-972 501.5,-972 495.5,-966 495.5,-960 495.5,-960 495.5,-948 495.5,-948 495.5,-942 501.5,-936 507.5,-936 507.5,-936 690.5,-936 690.5,-936 696.5,-936 702.5,-942 702.5,-948 702.5,-948 702.5,-960 702.5,-960 702.5,-966 696.5,-972 690.5,-972"/>
<text text-anchor="middle" x="599" y="-951.5" font-family="sans" font-size="10.00">somatic_learn_read_orientation_model</text>
</g>
<!-- 23&#45;&gt;24 -->
<g id="edge52" class="edge">
<title>23&#45;&gt;24</title>
<path fill="none" stroke="grey" stroke-width="2" d="M647.18,-1007.7C639.43,-999.22 629.96,-988.86 621.48,-979.58"/>
<polygon fill="grey" stroke="grey" stroke-width="2" points="623.97,-977.12 614.64,-972.1 618.8,-981.85 623.97,-977.12"/>
</g>
<!-- 24&#45;&gt;22 -->
<g id="edge48" class="edge">
<title>24&#45;&gt;22</title>
<path fill="none" stroke="grey" stroke-width="2" d="M631.29,-935.88C648.87,-926.55 670.81,-914.92 689.63,-904.94"/>
<polygon fill="grey" stroke="grey" stroke-width="2" points="691.39,-907.97 698.59,-900.19 688.11,-901.78 691.39,-907.97"/>
</g>
<!-- 25 -->
<g id="node26" class="node">
<title>25</title>
<path fill="none" stroke="#567bd8" stroke-width="2" d="M928.5,-972C928.5,-972 771.5,-972 771.5,-972 765.5,-972 759.5,-966 759.5,-960 759.5,-960 759.5,-948 759.5,-948 759.5,-942 765.5,-936 771.5,-936 771.5,-936 928.5,-936 928.5,-936 934.5,-936 940.5,-942 940.5,-948 940.5,-948 940.5,-960 940.5,-960 940.5,-966 934.5,-972 928.5,-972"/>
<text text-anchor="middle" x="850" y="-951.5" font-family="sans" font-size="10.00">somatic_calculate_contamination</text>
</g>
<!-- 25&#45;&gt;22 -->
<g id="edge50" class="edge">
<title>25&#45;&gt;22</title>
<path fill="none" stroke="grey" stroke-width="2" d="M820.89,-935.88C805.33,-926.72 785.98,-915.34 769.22,-905.48"/>
<polygon fill="grey" stroke="grey" stroke-width="2" points="770.62,-902.24 760.22,-900.19 767.07,-908.28 770.62,-902.24"/>
</g>
<!-- 26&#45;&gt;25 -->
<g id="edge53" class="edge">
<title>26&#45;&gt;25</title>
<path fill="none" stroke="grey" stroke-width="2" d="M853.76,-1007.7C853.21,-999.98 852.55,-990.71 851.94,-982.11"/>
<polygon fill="grey" stroke="grey" stroke-width="2" points="855.43,-981.83 851.22,-972.1 848.44,-982.33 855.43,-981.83"/>
</g>
<!-- 27&#45;&gt;19 -->
<g id="edge45" class="edge">
<title>27&#45;&gt;19</title>
<path fill="none" stroke="grey" stroke-width="2" d="M686.18,-647.7C689,-639.81 692.39,-630.3 695.52,-621.55"/>
<polygon fill="grey" stroke="grey" stroke-width="2" points="698.82,-622.7 698.89,-612.1 692.23,-620.34 698.82,-622.7"/>
</g>
<!-- 28 -->
<g id="node29" class="node">
<title>28</title>
<path fill="none" stroke="#d8cb56" stroke-width="2" d="M747,-396C747,-396 691,-396 691,-396 685,-396 679,-390 679,-384 679,-384 679,-372 679,-372 679,-366 685,-360 691,-360 691,-360 747,-360 747,-360 753,-360 759,-366 759,-372 759,-372 759,-384 759,-384 759,-390 753,-396 747,-396"/>
<text text-anchor="middle" x="719" y="-375.5" font-family="sans" font-size="10.00">somatic_maf</text>
</g>
<!-- 28&#45;&gt;0 -->
<g id="edge19" class="edge">
<title>28&#45;&gt;0</title>
<path fill="none" stroke="grey" stroke-width="2" d="M756.57,-359.83C798.94,-337.58 862,-294.48 862,-235 862,-235 862,-235 862,-161 862,-108.7 893.76,-98.25 939,-72 1013.38,-28.85 1116.64,-20.18 1171.41,-18.83"/>
<polygon fill="grey" stroke="grey" stroke-width="2" points="1171.75,-22.33 1181.69,-18.65 1171.63,-15.33 1171.75,-22.33"/>
</g>
<!-- 28&#45;&gt;32 -->
<g id="edge61" class="edge">
<title>28&#45;&gt;32</title>
<path fill="none" stroke="grey" stroke-width="2" d="M759.07,-365.6C795.9,-355.12 851.31,-339.35 895.37,-326.81"/>
<polygon fill="grey" stroke="grey" stroke-width="2" points="896.5,-330.13 905.16,-324.03 894.59,-323.4 896.5,-330.13"/>
</g>
<!-- 37 -->
<g id="node38" class="node">
<title>37</title>
<path fill="none" stroke="#59d856" stroke-width="2" d="M381.5,-180C381.5,-180 270.5,-180 270.5,-180 264.5,-180 258.5,-174 258.5,-168 258.5,-168 258.5,-156 258.5,-156 258.5,-150 264.5,-144 270.5,-144 270.5,-144 381.5,-144 381.5,-144 387.5,-144 393.5,-150 393.5,-156 393.5,-156 393.5,-168 393.5,-168 393.5,-174 387.5,-180 381.5,-180"/>
<text text-anchor="middle" x="326" y="-159.5" font-family="sans" font-size="10.00">somatic_maf_aggregate</text>
</g>
<!-- 28&#45;&gt;37 -->
<g id="edge71" class="edge">
<title>28&#45;&gt;37</title>
<path fill="none" stroke="grey" stroke-width="2" d="M678.71,-373.86C632.05,-368.82 554.02,-356 495,-324 431.02,-289.32 373.63,-224.05 345.08,-188.19"/>
<polygon fill="grey" stroke="grey" stroke-width="2" points="347.7,-185.87 338.78,-180.16 342.2,-190.19 347.7,-185.87"/>
</g>
<!-- 40 -->
<g id="node41" class="node">
<title>40</title>
<path fill="none" stroke="#56d87b" stroke-width="2" d="M600,-324C600,-324 516,-324 516,-324 510,-324 504,-318 504,-312 504,-312 504,-300 504,-300 504,-294 510,-288 516,-288 516,-288 600,-288 600,-288 606,-288 612,-294 612,-300 612,-300 612,-312 612,-312 612,-318 606,-324 600,-324"/>
<text text-anchor="middle" x="558" y="-303.5" font-family="sans" font-size="10.00">somatic_maf_civic</text>
</g>
<!-- 28&#45;&gt;40 -->
<g id="edge75" class="edge">
<title>28&#45;&gt;40</title>
<path fill="none" stroke="grey" stroke-width="2" d="M679.61,-359.88C657.61,-350.31 629.99,-338.3 606.64,-328.15"/>
<polygon fill="grey" stroke="grey" stroke-width="2" points="607.82,-324.85 597.26,-324.07 605.03,-331.27 607.82,-324.85"/>
</g>
<!-- 42 -->
<g id="node43" class="node">
<title>42</title>
<path fill="none" stroke="#d6d856" stroke-width="2" d="M767.5,-324C767.5,-324 670.5,-324 670.5,-324 664.5,-324 658.5,-318 658.5,-312 658.5,-312 658.5,-300 658.5,-300 658.5,-294 664.5,-288 670.5,-288 670.5,-288 767.5,-288 767.5,-288 773.5,-288 779.5,-294 779.5,-300 779.5,-300 779.5,-312 779.5,-312 779.5,-318 773.5,-324 767.5,-324"/>
<text text-anchor="middle" x="719" y="-303.5" font-family="sans" font-size="10.00">somatic_maf_oncokb</text>
</g>
<!-- 28&#45;&gt;42 -->
<g id="edge77" class="edge">
<title>28&#45;&gt;42</title>
<path fill="none" stroke="grey" stroke-width="2" d="M719,-359.7C719,-351.98 719,-342.71 719,-334.11"/>
<polygon fill="grey" stroke="grey" stroke-width="2" points="722.5,-334.1 719,-324.1 715.5,-334.1 722.5,-334.1"/>
</g>
<!-- 29&#45;&gt;28 -->
<g id="edge56" class="edge">
<title>29&#45;&gt;28</title>
<path fill="none" stroke="grey" stroke-width="2" d="M732.19,-503.87C729.63,-479.67 724.94,-435.21 721.89,-406.39"/>
<polygon fill="grey" stroke="grey" stroke-width="2" points="725.35,-405.77 720.82,-396.19 718.39,-406.5 725.35,-405.77"/>
</g>
<!-- 30 -->
<g id="node31" class="node">
<title>30</title>
<path fill="none" stroke="#56d863" stroke-width="2" d="M675.5,-468C675.5,-468 574.5,-468 574.5,-468 568.5,-468 562.5,-462 562.5,-456 562.5,-456 562.5,-444 562.5,-444 562.5,-438 568.5,-432 574.5,-432 574.5,-432 675.5,-432 675.5,-432 681.5,-432 687.5,-438 687.5,-444 687.5,-444 687.5,-456 687.5,-456 687.5,-462 681.5,-468 675.5,-468"/>
<text text-anchor="middle" x="625" y="-447.5" font-family="sans" font-size="10.00">somatic_vep_vcf2maf</text>
</g>
<!-- 30&#45;&gt;28 -->
<g id="edge57" class="edge">
<title>30&#45;&gt;28</title>
<path fill="none" stroke="grey" stroke-width="2" d="M648.24,-431.7C660.19,-422.8 674.92,-411.82 687.85,-402.2"/>
<polygon fill="grey" stroke="grey" stroke-width="2" points="690.1,-404.88 696.03,-396.1 685.92,-399.27 690.1,-404.88"/>
</g>
<!-- 31&#45;&gt;30 -->
<g id="edge59" class="edge">
<title>31&#45;&gt;30</title>
<path fill="none" stroke="grey" stroke-width="2" d="M618.22,-503.7C619.22,-495.98 620.41,-486.71 621.51,-478.11"/>
<polygon fill="grey" stroke="grey" stroke-width="2" points="625,-478.47 622.8,-468.1 618.05,-477.58 625,-478.47"/>
</g>
<!-- 32&#45;&gt;0 -->
<g id="edge8" class="edge">
<title>32&#45;&gt;0</title>
<path fill="none" stroke="grey" stroke-width="2" d="M952.42,-287.58C932.34,-257.5 897.41,-194.2 919,-144 960.54,-47.43 1102.54,-25.4 1171.21,-20.42"/>
<polygon fill="grey" stroke="grey" stroke-width="2" points="1171.82,-23.89 1181.57,-19.76 1171.37,-16.9 1171.82,-23.89"/>
</g>
<!-- 60 -->
<g id="node61" class="node">
<title>60</title>
<path fill="none" stroke="#d86e56" stroke-width="2" d="M1058,-180C1058,-180 940,-180 940,-180 934,-180 928,-174 928,-168 928,-168 928,-156 928,-156 928,-150 934,-144 940,-144 940,-144 1058,-144 1058,-144 1064,-144 1070,-150 1070,-156 1070,-156 1070,-168 1070,-168 1070,-174 1064,-180 1058,-180"/>
<text text-anchor="middle" x="999" y="-159.5" font-family="sans" font-size="10.00">somatic_maf_with_pileup</text>
</g>
<!-- 32&#45;&gt;60 -->
<g id="edge96" class="edge">
<title>32&#45;&gt;60</title>
<path fill="none" stroke="grey" stroke-width="2" d="M969.1,-287.87C974.92,-263.56 985.63,-218.82 992.53,-190.01"/>
<polygon fill="grey" stroke="grey" stroke-width="2" points="995.96,-190.73 994.88,-180.19 989.15,-189.1 995.96,-190.73"/>
</g>
<!-- 33 -->
<g id="node34" class="node">
<title>33</title>
<path fill="none" stroke="#5692d8" stroke-width="2" d="M1217,-540C1217,-540 1053,-540 1053,-540 1047,-540 1041,-534 1041,-528 1041,-528 1041,-516 1041,-516 1041,-510 1047,-504 1053,-504 1053,-504 1217,-504 1217,-504 1223,-504 1229,-510 1229,-516 1229,-516 1229,-528 1229,-528 1229,-534 1223,-540 1217,-540"/>
<text text-anchor="middle" x="1135" y="-519.5" font-family="sans" font-size="10.00">somatic_cnv_facets_tumor_normal</text>
</g>
<!-- 33&#45;&gt;0 -->
<g id="edge17" class="edge">
<title>33&#45;&gt;0</title>
<path fill="none" stroke="grey" stroke-width="2" d="M1135.2,-503.95C1135.49,-477.29 1136,-424.12 1136,-379 1136,-379 1136,-379 1136,-233 1136,-195.54 1065.41,-103.3 1086,-72 1104.9,-43.28 1142.99,-30.06 1171.81,-24.01"/>
<polygon fill="grey" stroke="grey" stroke-width="2" points="1172.77,-27.39 1181.95,-22.09 1171.47,-20.51 1172.77,-27.39"/>
</g>
<!-- 44 -->
<g id="node45" class="node">
<title>44</title>
<path fill="none" stroke="#d85e56" stroke-width="2" d="M1544.5,-468C1544.5,-468 1427.5,-468 1427.5,-468 1421.5,-468 1415.5,-462 1415.5,-456 1415.5,-456 1415.5,-444 1415.5,-444 1415.5,-438 1421.5,-432 1427.5,-432 1427.5,-432 1544.5,-432 1544.5,-432 1550.5,-432 1556.5,-438 1556.5,-444 1556.5,-444 1556.5,-456 1556.5,-456 1556.5,-462 1550.5,-468 1544.5,-468"/>
<text text-anchor="middle" x="1486" y="-447.5" font-family="sans" font-size="10.00">somatic_cnv_process_vcf</text>
</g>
<!-- 33&#45;&gt;44 -->
<g id="edge79" class="edge">
<title>33&#45;&gt;44</title>
<path fill="none" stroke="grey" stroke-width="2" d="M1220.42,-503.97C1276.67,-492.75 1349.88,-478.15 1405.18,-467.12"/>
<polygon fill="grey" stroke="grey" stroke-width="2" points="1406.17,-470.49 1415.29,-465.1 1404.8,-463.62 1406.17,-470.49"/>
</g>
<!-- 59 -->
<g id="node60" class="node">
<title>59</title>
<path fill="none" stroke="#566bd8" stroke-width="2" d="M1217,-108C1217,-108 1107,-108 1107,-108 1101,-108 1095,-102 1095,-96 1095,-96 1095,-84 1095,-84 1095,-78 1101,-72 1107,-72 1107,-72 1217,-72 1217,-72 1223,-72 1229,-78 1229,-84 1229,-84 1229,-96 1229,-96 1229,-102 1223,-108 1217,-108"/>
<text text-anchor="middle" x="1162" y="-87.5" font-family="sans" font-size="10.00">somatic_ppy_aggregate</text>
</g>
<!-- 33&#45;&gt;59 -->
<g id="edge95" class="edge">
<title>33&#45;&gt;59</title>
<path fill="none" stroke="grey" stroke-width="2" d="M1142.89,-503.93C1154.29,-477.67 1174,-425.53 1174,-379 1174,-379 1174,-379 1174,-233 1174,-192.85 1169.18,-146.55 1165.65,-118.02"/>
<polygon fill="grey" stroke="grey" stroke-width="2" points="1169.11,-117.49 1164.37,-108.01 1162.16,-118.37 1169.11,-117.49"/>
</g>
<!-- 34&#45;&gt;33 -->
<g id="edge63" class="edge">
<title>34&#45;&gt;33</title>
<path fill="none" stroke="grey" stroke-width="2" d="M1115.17,-935.98C1118.38,-909.37 1124,-856.25 1124,-811 1124,-811 1124,-811 1124,-665 1124,-624.88 1128.42,-578.57 1131.66,-550.03"/>
<polygon fill="grey" stroke="grey" stroke-width="2" points="1135.14,-550.36 1132.83,-540.02 1128.19,-549.54 1135.14,-550.36"/>
</g>
<!-- 35 -->
<g id="node36" class="node">
<title>35</title>
<path fill="none" stroke="#d87556" stroke-width="2" d="M464,-108C464,-108 342,-108 342,-108 336,-108 330,-102 330,-96 330,-96 330,-84 330,-84 330,-78 336,-72 342,-72 342,-72 464,-72 464,-72 470,-72 476,-78 476,-84 476,-84 476,-96 476,-96 476,-102 470,-108 464,-108"/>
<text text-anchor="middle" x="403" y="-87.5" font-family="sans" font-size="10.00">somatic_maf_last_filtering</text>
</g>
<!-- 35&#45;&gt;0 -->
<g id="edge7" class="edge">
<title>35&#45;&gt;0</title>
<path fill="none" stroke="grey" stroke-width="2" d="M476.31,-82.63C643.16,-68.14 1046.49,-33.11 1171.45,-22.26"/>
<polygon fill="grey" stroke="grey" stroke-width="2" points="1172,-25.73 1181.66,-21.37 1171.39,-18.75 1172,-25.73"/>
</g>
<!-- 36&#45;&gt;35 -->
<g id="edge69" class="edge">
<title>36&#45;&gt;35</title>
<path fill="none" stroke="grey" stroke-width="2" d="M314.03,-431.85C263,-411.08 192,-370.73 192,-307 192,-307 192,-307 192,-233 192,-188.47 204.01,-172.76 238,-144 261.11,-124.44 291.55,-112.07 319.99,-104.26"/>
<polygon fill="grey" stroke="grey" stroke-width="2" points="321.14,-107.57 329.94,-101.68 319.39,-100.8 321.14,-107.57"/>
</g>
<!-- 37&#45;&gt;35 -->
<g id="edge65" class="edge">
<title>37&#45;&gt;35</title>
<path fill="none" stroke="grey" stroke-width="2" d="M345.03,-143.7C354.54,-135.05 366.21,-124.45 376.57,-115.03"/>
<polygon fill="grey" stroke="grey" stroke-width="2" points="379.14,-117.42 384.19,-108.1 374.43,-112.24 379.14,-117.42"/>
</g>
<!-- 61 -->
<g id="node62" class="node">
<title>61</title>
<path fill="none" stroke="#d89c56" stroke-width="2" d="M789,-108C789,-108 649,-108 649,-108 643,-108 637,-102 637,-96 637,-96 637,-84 637,-84 637,-78 643,-72 649,-72 649,-72 789,-72 789,-72 795,-72 801,-78 801,-84 801,-84 801,-96 801,-96 801,-102 795,-108 789,-108"/>
<text text-anchor="middle" x="719" y="-87.5" font-family="sans" font-size="10.00">somatic_maf_all_last_filtering</text>
</g>
<!-- 37&#45;&gt;61 -->
<g id="edge98" class="edge">
<title>37&#45;&gt;61</title>
<path fill="none" stroke="grey" stroke-width="2" d="M393.57,-145.88C396.75,-145.23 399.91,-144.6 403,-144 478.16,-129.41 563.85,-115.19 627.01,-105.16"/>
<polygon fill="grey" stroke="grey" stroke-width="2" points="627.62,-108.6 636.95,-103.58 626.53,-101.69 627.62,-108.6"/>
</g>
<!-- 38 -->
<g id="node39" class="node">
<title>38</title>
<path fill="none" stroke="#78d856" stroke-width="2" d="M536,-180C536,-180 424,-180 424,-180 418,-180 412,-174 412,-168 412,-168 412,-156 412,-156 412,-150 418,-144 424,-144 424,-144 536,-144 536,-144 542,-144 548,-150 548,-156 548,-156 548,-168 548,-168 548,-174 542,-180 536,-180"/>
<text text-anchor="middle" x="480" y="-159.5" font-family="sans" font-size="10.00">somatic_maf_union_ann</text>
</g>
<!-- 38&#45;&gt;35 -->
<g id="edge66" class="edge">
<title>38&#45;&gt;35</title>
<path fill="none" stroke="grey" stroke-width="2" d="M460.97,-143.7C451.46,-135.05 439.79,-124.45 429.43,-115.03"/>
<polygon fill="grey" stroke="grey" stroke-width="2" points="431.57,-112.24 421.81,-108.1 426.86,-117.42 431.57,-112.24"/>
</g>
<!-- 39 -->
<g id="node40" class="node">
<title>39</title>
<path fill="none" stroke="#56c1d8" stroke-width="2" d="M600.5,-252C600.5,-252 461.5,-252 461.5,-252 455.5,-252 449.5,-246 449.5,-240 449.5,-240 449.5,-228 449.5,-228 449.5,-222 455.5,-216 461.5,-216 461.5,-216 600.5,-216 600.5,-216 606.5,-216 612.5,-222 612.5,-228 612.5,-228 612.5,-240 612.5,-240 612.5,-246 606.5,-252 600.5,-252"/>
<text text-anchor="middle" x="531" y="-231.5" font-family="sans" font-size="10.00">somatic_maf_civic_aggregate</text>
</g>
<!-- 39&#45;&gt;35 -->
<g id="edge67" class="edge">
<title>39&#45;&gt;35</title>
<path fill="none" stroke="grey" stroke-width="2" d="M449.29,-228.87C375.56,-223.22 274.95,-210.1 250,-180 222.6,-146.95 270.66,-123.47 319.98,-108.96"/>
<polygon fill="grey" stroke="grey" stroke-width="2" points="321.17,-112.26 329.84,-106.17 319.27,-105.52 321.17,-112.26"/>
</g>
<!-- 39&#45;&gt;38 -->
<g id="edge72" class="edge">
<title>39&#45;&gt;38</title>
<path fill="none" stroke="grey" stroke-width="2" d="M518.39,-215.7C512.4,-207.47 505.12,-197.48 498.52,-188.42"/>
<polygon fill="grey" stroke="grey" stroke-width="2" points="501.18,-186.13 492.46,-180.1 495.52,-190.25 501.18,-186.13"/>
</g>
<!-- 39&#45;&gt;61 -->
<g id="edge97" class="edge">
<title>39&#45;&gt;61</title>
<path fill="none" stroke="grey" stroke-width="2" d="M549.26,-215.69C569.3,-197.05 602.8,-166.99 634,-144 648.61,-133.24 665.43,-122.44 680.23,-113.43"/>
<polygon fill="grey" stroke="grey" stroke-width="2" points="682.39,-116.22 689.15,-108.06 678.78,-110.22 682.39,-116.22"/>
</g>
<!-- 62 -->
<g id="node63" class="node">
<title>62</title>
<path fill="none" stroke="#d87d56" stroke-width="2" d="M783.5,-180C783.5,-180 654.5,-180 654.5,-180 648.5,-180 642.5,-174 642.5,-168 642.5,-168 642.5,-156 642.5,-156 642.5,-150 648.5,-144 654.5,-144 654.5,-144 783.5,-144 783.5,-144 789.5,-144 795.5,-150 795.5,-156 795.5,-156 795.5,-168 795.5,-168 795.5,-174 789.5,-180 783.5,-180"/>
<text text-anchor="middle" x="719" y="-159.5" font-family="sans" font-size="10.00">somatic_maf_all_union_ann</text>
</g>
<!-- 39&#45;&gt;62 -->
<g id="edge101" class="edge">
<title>39&#45;&gt;62</title>
<path fill="none" stroke="grey" stroke-width="2" d="M576.99,-215.88C603.15,-206.14 636.09,-193.87 663.65,-183.61"/>
<polygon fill="grey" stroke="grey" stroke-width="2" points="665.01,-186.84 673.16,-180.07 662.57,-180.28 665.01,-186.84"/>
</g>
<!-- 40&#45;&gt;39 -->
<g id="edge74" class="edge">
<title>40&#45;&gt;39</title>
<path fill="none" stroke="grey" stroke-width="2" d="M551.33,-287.7C548.29,-279.81 544.62,-270.3 541.24,-261.55"/>
<polygon fill="grey" stroke="grey" stroke-width="2" points="544.46,-260.17 537.6,-252.1 537.93,-262.69 544.46,-260.17"/>
</g>
<!-- 41 -->
<g id="node42" class="node">
<title>41</title>
<path fill="none" stroke="#d8c356" stroke-width="2" d="M795,-252C795,-252 643,-252 643,-252 637,-252 631,-246 631,-240 631,-240 631,-228 631,-228 631,-222 637,-216 643,-216 643,-216 795,-216 795,-216 801,-216 807,-222 807,-228 807,-228 807,-240 807,-240 807,-246 801,-252 795,-252"/>
<text text-anchor="middle" x="719" y="-231.5" font-family="sans" font-size="10.00">somatic_maf_oncokb_aggregate</text>
</g>
<!-- 41&#45;&gt;35 -->
<g id="edge68" class="edge">
<title>41&#45;&gt;35</title>
<path fill="none" stroke="grey" stroke-width="2" d="M691.36,-215.91C659.69,-196.78 605.85,-165.64 557,-144 529.14,-131.66 497.45,-120.32 470.08,-111.32"/>
<polygon fill="grey" stroke="grey" stroke-width="2" points="470.8,-107.87 460.21,-108.11 468.64,-114.53 470.8,-107.87"/>
</g>
<!-- 41&#45;&gt;38 -->
<g id="edge73" class="edge">
<title>41&#45;&gt;38</title>
<path fill="none" stroke="grey" stroke-width="2" d="M660.84,-215.97C626.87,-206.01 583.82,-193.41 548.24,-182.99"/>
<polygon fill="grey" stroke="grey" stroke-width="2" points="549,-179.56 538.42,-180.11 547.03,-186.28 549,-179.56"/>
</g>
<!-- 41&#45;&gt;61 -->
<g id="edge99" class="edge">
<title>41&#45;&gt;61</title>
<path fill="none" stroke="grey" stroke-width="2" d="M764.55,-215.98C780.25,-207.66 796.11,-195.93 805,-180 812.8,-166.03 812.8,-157.97 805,-144 797.78,-131.06 785.95,-120.89 773.35,-113.07"/>
<polygon fill="grey" stroke="grey" stroke-width="2" points="774.96,-109.96 764.55,-108.02 771.48,-116.03 774.96,-109.96"/>
</g>
<!-- 41&#45;&gt;62 -->
<g id="edge102" class="edge">
<title>41&#45;&gt;62</title>
<path fill="none" stroke="grey" stroke-width="2" d="M719,-215.7C719,-207.98 719,-198.71 719,-190.11"/>
<polygon fill="grey" stroke="grey" stroke-width="2" points="722.5,-190.1 719,-180.1 715.5,-190.1 722.5,-190.1"/>
</g>
<!-- 42&#45;&gt;41 -->
<g id="edge76" class="edge">
<title>42&#45;&gt;41</title>
<path fill="none" stroke="grey" stroke-width="2" d="M719,-287.7C719,-279.98 719,-270.71 719,-262.11"/>
<polygon fill="grey" stroke="grey" stroke-width="2" points="722.5,-262.1 719,-252.1 715.5,-262.1 722.5,-262.1"/>
</g>
<!-- 43 -->
<g id="node44" class="node">
<title>43</title>
<path fill="none" stroke="#56d8d8" stroke-width="2" d="M1436.5,-108C1436.5,-108 1297.5,-108 1297.5,-108 1291.5,-108 1285.5,-102 1285.5,-96 1285.5,-96 1285.5,-84 1285.5,-84 1285.5,-78 1291.5,-72 1297.5,-72 1297.5,-72 1436.5,-72 1436.5,-72 1442.5,-72 1448.5,-78 1448.5,-84 1448.5,-84 1448.5,-96 1448.5,-96 1448.5,-102 1442.5,-108 1436.5,-108"/>
<text text-anchor="middle" x="1367" y="-87.5" font-family="sans" font-size="10.00">somatic_cna_table_aggregate</text>
</g>
<!-- 43&#45;&gt;0 -->
<g id="edge4" class="edge">
<title>43&#45;&gt;0</title>
<path fill="none" stroke="grey" stroke-width="2" d="M1328.35,-71.88C1303.19,-60.73 1270.56,-46.27 1245.78,-35.29"/>
<polygon fill="grey" stroke="grey" stroke-width="2" points="1246.92,-31.97 1236.36,-31.12 1244.08,-38.37 1246.92,-31.97"/>
</g>
<!-- 44&#45;&gt;43 -->
<g id="edge78" class="edge">
<title>44&#45;&gt;43</title>
<path fill="none" stroke="grey" stroke-width="2" d="M1425.57,-431.96C1369.61,-412.05 1295,-373.11 1295,-307 1295,-307 1295,-307 1295,-233 1295,-188.35 1323.66,-143.52 1344.82,-116.51"/>
<polygon fill="grey" stroke="grey" stroke-width="2" points="1347.82,-118.36 1351.38,-108.38 1342.37,-113.96 1347.82,-118.36"/>
</g>
<!-- 47 -->
<g id="node48" class="node">
<title>47</title>
<path fill="none" stroke="#80d856" stroke-width="2" d="M1541.5,-396C1541.5,-396 1430.5,-396 1430.5,-396 1424.5,-396 1418.5,-390 1418.5,-384 1418.5,-384 1418.5,-372 1418.5,-372 1418.5,-366 1424.5,-360 1430.5,-360 1430.5,-360 1541.5,-360 1541.5,-360 1547.5,-360 1553.5,-366 1553.5,-372 1553.5,-372 1553.5,-384 1553.5,-384 1553.5,-390 1547.5,-396 1541.5,-396"/>
<text text-anchor="middle" x="1486" y="-375.5" font-family="sans" font-size="10.00">somatic_cnv_gene_calls</text>
</g>
<!-- 44&#45;&gt;47 -->
<g id="edge82" class="edge">
<title>44&#45;&gt;47</title>
<path fill="none" stroke="grey" stroke-width="2" d="M1486,-431.7C1486,-423.98 1486,-414.71 1486,-406.11"/>
<polygon fill="grey" stroke="grey" stroke-width="2" points="1489.5,-406.1 1486,-396.1 1482.5,-406.1 1489.5,-406.1"/>
</g>
<!-- 55 -->
<g id="node56" class="node">
<title>55</title>
<path fill="none" stroke="#56d8d8" stroke-width="2" d="M1718.5,-396C1718.5,-396 1583.5,-396 1583.5,-396 1577.5,-396 1571.5,-390 1571.5,-384 1571.5,-384 1571.5,-372 1571.5,-372 1571.5,-366 1577.5,-360 1583.5,-360 1583.5,-360 1718.5,-360 1718.5,-360 1724.5,-360 1730.5,-366 1730.5,-372 1730.5,-372 1730.5,-384 1730.5,-384 1730.5,-390 1724.5,-396 1718.5,-396"/>
<text text-anchor="middle" x="1651" y="-375.5" font-family="sans" font-size="10.00">somatic_cna_sum_aggregate</text>
</g>
<!-- 44&#45;&gt;55 -->
<g id="edge91" class="edge">
<title>44&#45;&gt;55</title>
<path fill="none" stroke="grey" stroke-width="2" d="M1526.36,-431.88C1549.02,-422.26 1577.47,-410.19 1601.47,-400.01"/>
<polygon fill="grey" stroke="grey" stroke-width="2" points="1602.93,-403.2 1610.77,-396.07 1600.19,-396.75 1602.93,-403.2"/>
</g>
<!-- 56 -->
<g id="node57" class="node">
<title>56</title>
<path fill="none" stroke="#56d88a" stroke-width="2" d="M1914,-396C1914,-396 1760,-396 1760,-396 1754,-396 1748,-390 1748,-384 1748,-384 1748,-372 1748,-372 1748,-366 1754,-360 1760,-360 1760,-360 1914,-360 1914,-360 1920,-360 1926,-366 1926,-372 1926,-372 1926,-384 1926,-384 1926,-390 1920,-396 1914,-396"/>
<text text-anchor="middle" x="1837" y="-375.5" font-family="sans" font-size="10.00">somatic_cna_chr_arm_aggregate</text>
</g>
<!-- 44&#45;&gt;56 -->
<g id="edge92" class="edge">
<title>44&#45;&gt;56</title>
<path fill="none" stroke="grey" stroke-width="2" d="M1556.61,-434.92C1609.79,-424.31 1683.26,-409.66 1741.65,-398.02"/>
<polygon fill="grey" stroke="grey" stroke-width="2" points="1742.51,-401.41 1751.63,-396.03 1741.14,-394.55 1742.51,-401.41"/>
</g>
<!-- 45 -->
<g id="node46" class="node">
<title>45</title>
<path fill="none" stroke="#97d856" stroke-width="2" d="M1501,-540C1501,-540 1471,-540 1471,-540 1465,-540 1459,-534 1459,-528 1459,-528 1459,-516 1459,-516 1459,-510 1465,-504 1471,-504 1471,-504 1501,-504 1501,-504 1507,-504 1513,-510 1513,-516 1513,-516 1513,-528 1513,-528 1513,-534 1507,-540 1501,-540"/>
<text text-anchor="middle" x="1486" y="-519.5" font-family="sans" font-size="10.00">setup_r</text>
</g>
<!-- 45&#45;&gt;44 -->
<g id="edge80" class="edge">
<title>45&#45;&gt;44</title>
<path fill="none" stroke="grey" stroke-width="2" d="M1486,-503.7C1486,-495.98 1486,-486.71 1486,-478.11"/>
<polygon fill="grey" stroke="grey" stroke-width="2" points="1489.5,-478.1 1486,-468.1 1482.5,-478.1 1489.5,-478.1"/>
</g>
<!-- 46 -->
<g id="node47" class="node">
<title>46</title>
<path fill="none" stroke="#d8cb56" stroke-width="2" d="M1477,-252C1477,-252 1335,-252 1335,-252 1329,-252 1323,-246 1323,-240 1323,-240 1323,-228 1323,-228 1323,-222 1329,-216 1335,-216 1335,-216 1477,-216 1477,-216 1483,-216 1489,-222 1489,-228 1489,-228 1489,-240 1489,-240 1489,-246 1483,-252 1477,-252"/>
<text text-anchor="middle" x="1406" y="-231.5" font-family="sans" font-size="10.00">somatic_cna_filters_aggregate</text>
</g>
<!-- 46&#45;&gt;0 -->
<g id="edge18" class="edge">
<title>46&#45;&gt;0</title>
<path fill="none" stroke="grey" stroke-width="2" d="M1415.32,-215.99C1434.77,-179.4 1476.39,-94.72 1458,-72 1431.84,-39.69 1309.67,-26.25 1246.72,-21.39"/>
<polygon fill="grey" stroke="grey" stroke-width="2" points="1246.65,-17.87 1236.42,-20.63 1246.14,-24.85 1246.65,-17.87"/>
</g>
<!-- 47&#45;&gt;46 -->
<g id="edge81" class="edge">
<title>47&#45;&gt;46</title>
<path fill="none" stroke="grey" stroke-width="2" d="M1460.08,-359.94C1447.98,-350.69 1434.42,-338.24 1426,-324 1414.88,-305.2 1409.94,-280.82 1407.74,-262.33"/>
<polygon fill="grey" stroke="grey" stroke-width="2" points="1411.21,-261.82 1406.74,-252.22 1404.24,-262.51 1411.21,-261.82"/>
</g>
<!-- 48 -->
<g id="node49" class="node">
<title>48</title>
<path fill="none" stroke="#56d8b1" stroke-width="2" d="M1583.5,-324C1583.5,-324 1446.5,-324 1446.5,-324 1440.5,-324 1434.5,-318 1434.5,-312 1434.5,-312 1434.5,-300 1434.5,-300 1434.5,-294 1440.5,-288 1446.5,-288 1446.5,-288 1583.5,-288 1583.5,-288 1589.5,-288 1595.5,-294 1595.5,-300 1595.5,-300 1595.5,-312 1595.5,-312 1595.5,-318 1589.5,-324 1583.5,-324"/>
<text text-anchor="middle" x="1515" y="-303.5" font-family="sans" font-size="10.00">somatic_cna_calls_aggregate</text>
</g>
<!-- 47&#45;&gt;48 -->
<g id="edge83" class="edge">
<title>47&#45;&gt;48</title>
<path fill="none" stroke="grey" stroke-width="2" d="M1493.17,-359.7C1496.43,-351.81 1500.37,-342.3 1504,-333.55"/>
<polygon fill="grey" stroke="grey" stroke-width="2" points="1507.32,-334.68 1507.91,-324.1 1500.85,-332 1507.32,-334.68"/>
</g>
<!-- 51 -->
<g id="node52" class="node">
<title>51</title>
<path fill="none" stroke="#56d85b" stroke-width="2" d="M1776.5,-324C1776.5,-324 1625.5,-324 1625.5,-324 1619.5,-324 1613.5,-318 1613.5,-312 1613.5,-312 1613.5,-300 1613.5,-300 1613.5,-294 1619.5,-288 1625.5,-288 1625.5,-288 1776.5,-288 1776.5,-288 1782.5,-288 1788.5,-294 1788.5,-300 1788.5,-300 1788.5,-312 1788.5,-312 1788.5,-318 1782.5,-324 1776.5,-324"/>
<text text-anchor="middle" x="1701" y="-303.5" font-family="sans" font-size="10.00">somatic_cnv_gene_calls_filtered</text>
</g>
<!-- 47&#45;&gt;51 -->
<g id="edge86" class="edge">
<title>47&#45;&gt;51</title>
<path fill="none" stroke="grey" stroke-width="2" d="M1538.32,-359.97C1568.62,-350.1 1606.95,-337.62 1638.79,-327.25"/>
<polygon fill="grey" stroke="grey" stroke-width="2" points="1640.02,-330.53 1648.45,-324.11 1637.85,-323.88 1640.02,-330.53"/>
</g>
<!-- 48&#45;&gt;0 -->
<g id="edge15" class="edge">
<title>48&#45;&gt;0</title>
<path fill="none" stroke="grey" stroke-width="2" d="M1512.02,-287.88C1508.83,-269.92 1503.48,-240.89 1498,-216 1494.45,-199.89 1492.14,-196.19 1489,-180 1479.78,-132.43 1507.23,-107.27 1474,-72 1443.44,-39.57 1312.37,-26.09 1246.74,-21.29"/>
<polygon fill="grey" stroke="grey" stroke-width="2" points="1246.64,-17.77 1236.42,-20.57 1246.15,-24.76 1246.64,-17.77"/>
</g>
<!-- 49 -->
<g id="node50" class="node">
<title>49</title>
<path fill="none" stroke="#d86e56" stroke-width="2" d="M1658.5,-180C1658.5,-180 1509.5,-180 1509.5,-180 1503.5,-180 1497.5,-174 1497.5,-168 1497.5,-168 1497.5,-156 1497.5,-156 1497.5,-150 1503.5,-144 1509.5,-144 1509.5,-144 1658.5,-144 1658.5,-144 1664.5,-144 1670.5,-150 1670.5,-156 1670.5,-156 1670.5,-168 1670.5,-168 1670.5,-174 1664.5,-180 1658.5,-180"/>
<text text-anchor="middle" x="1584" y="-159.5" font-family="sans" font-size="10.00">somatic_cna_oncokb_aggregate</text>
</g>
<!-- 49&#45;&gt;0 -->
<g id="edge6" class="edge">
<title>49&#45;&gt;0</title>
<path fill="none" stroke="grey" stroke-width="2" d="M1578.37,-143.8C1570.67,-123.2 1554.8,-89.3 1529,-72 1483.31,-41.36 1320.95,-26.62 1246.63,-21.35"/>
<polygon fill="grey" stroke="grey" stroke-width="2" points="1246.55,-17.84 1236.33,-20.64 1246.07,-24.82 1246.55,-17.84"/>
</g>
<!-- 54 -->
<g id="node55" class="node">
<title>54</title>
<path fill="none" stroke="#d89c56" stroke-width="2" d="M1703,-108C1703,-108 1593,-108 1593,-108 1587,-108 1581,-102 1581,-96 1581,-96 1581,-84 1581,-84 1581,-78 1587,-72 1593,-72 1593,-72 1703,-72 1703,-72 1709,-72 1715,-78 1715,-84 1715,-84 1715,-96 1715,-96 1715,-102 1709,-108 1703,-108"/>
<text text-anchor="middle" x="1648" y="-87.5" font-family="sans" font-size="10.00">somatic_cna_union_ann</text>
</g>
<!-- 49&#45;&gt;54 -->
<g id="edge89" class="edge">
<title>49&#45;&gt;54</title>
<path fill="none" stroke="grey" stroke-width="2" d="M1599.82,-143.7C1607.57,-135.22 1617.04,-124.86 1625.52,-115.58"/>
<polygon fill="grey" stroke="grey" stroke-width="2" points="1628.2,-117.85 1632.36,-108.1 1623.03,-113.12 1628.2,-117.85"/>
</g>
<!-- 50 -->
<g id="node51" class="node">
<title>50</title>
<path fill="none" stroke="#56d8a9" stroke-width="2" d="M1656.5,-252C1656.5,-252 1561.5,-252 1561.5,-252 1555.5,-252 1549.5,-246 1549.5,-240 1549.5,-240 1549.5,-228 1549.5,-228 1549.5,-222 1555.5,-216 1561.5,-216 1561.5,-216 1656.5,-216 1656.5,-216 1662.5,-216 1668.5,-222 1668.5,-228 1668.5,-228 1668.5,-240 1668.5,-240 1668.5,-246 1662.5,-252 1656.5,-252"/>
<text text-anchor="middle" x="1609" y="-231.5" font-family="sans" font-size="10.00">somatic_cna_oncokb</text>
</g>
<!-- 50&#45;&gt;49 -->
<g id="edge84" class="edge">
<title>50&#45;&gt;49</title>
<path fill="none" stroke="grey" stroke-width="2" d="M1602.82,-215.7C1600,-207.81 1596.61,-198.3 1593.48,-189.55"/>
<polygon fill="grey" stroke="grey" stroke-width="2" points="1596.77,-188.34 1590.11,-180.1 1590.18,-190.7 1596.77,-188.34"/>
</g>
<!-- 51&#45;&gt;50 -->
<g id="edge85" class="edge">
<title>51&#45;&gt;50</title>
<path fill="none" stroke="grey" stroke-width="2" d="M1678.26,-287.7C1666.56,-278.8 1652.14,-267.82 1639.49,-258.2"/>
<polygon fill="grey" stroke="grey" stroke-width="2" points="1641.56,-255.37 1631.48,-252.1 1637.32,-260.94 1641.56,-255.37"/>
</g>
<!-- 53 -->
<g id="node54" class="node">
<title>53</title>
<path fill="none" stroke="#56d892" stroke-width="2" d="M1783,-252C1783,-252 1701,-252 1701,-252 1695,-252 1689,-246 1689,-240 1689,-240 1689,-228 1689,-228 1689,-222 1695,-216 1701,-216 1701,-216 1783,-216 1783,-216 1789,-216 1795,-222 1795,-228 1795,-228 1795,-240 1795,-240 1795,-246 1789,-252 1783,-252"/>
<text text-anchor="middle" x="1742" y="-231.5" font-family="sans" font-size="10.00">somatic_cna_civic</text>
</g>
<!-- 51&#45;&gt;53 -->
<g id="edge88" class="edge">
<title>51&#45;&gt;53</title>
<path fill="none" stroke="grey" stroke-width="2" d="M1711.13,-287.7C1715.85,-279.64 1721.56,-269.89 1726.78,-260.98"/>
<polygon fill="grey" stroke="grey" stroke-width="2" points="1729.95,-262.5 1731.98,-252.1 1723.91,-258.96 1729.95,-262.5"/>
</g>
<!-- 52 -->
<g id="node53" class="node">
<title>52</title>
<path fill="none" stroke="#56a9d8" stroke-width="2" d="M1837.5,-180C1837.5,-180 1700.5,-180 1700.5,-180 1694.5,-180 1688.5,-174 1688.5,-168 1688.5,-168 1688.5,-156 1688.5,-156 1688.5,-150 1694.5,-144 1700.5,-144 1700.5,-144 1837.5,-144 1837.5,-144 1843.5,-144 1849.5,-150 1849.5,-156 1849.5,-156 1849.5,-168 1849.5,-168 1849.5,-174 1843.5,-180 1837.5,-180"/>
<text text-anchor="middle" x="1769" y="-159.5" font-family="sans" font-size="10.00">somatic_cna_civic_aggregate</text>
</g>
<!-- 52&#45;&gt;0 -->
<g id="edge16" class="edge">
<title>52&#45;&gt;0</title>
<path fill="none" stroke="grey" stroke-width="2" d="M1765.57,-143.99C1760.41,-123.25 1748.53,-88.88 1724,-72 1646.5,-18.68 1351.45,-17.12 1246.41,-18.33"/>
<polygon fill="grey" stroke="grey" stroke-width="2" points="1246.23,-14.83 1236.27,-18.46 1246.32,-21.83 1246.23,-14.83"/>
</g>
<!-- 52&#45;&gt;54 -->
<g id="edge90" class="edge">
<title>52&#45;&gt;54</title>
<path fill="none" stroke="grey" stroke-width="2" d="M1739.4,-143.88C1723.43,-134.64 1703.54,-123.13 1686.39,-113.21"/>
<polygon fill="grey" stroke="grey" stroke-width="2" points="1688.12,-110.17 1677.71,-108.19 1684.62,-116.23 1688.12,-110.17"/>
</g>
<!-- 53&#45;&gt;52 -->
<g id="edge87" class="edge">
<title>53&#45;&gt;52</title>
<path fill="none" stroke="grey" stroke-width="2" d="M1748.67,-215.7C1751.71,-207.81 1755.38,-198.3 1758.76,-189.55"/>
<polygon fill="grey" stroke="grey" stroke-width="2" points="1762.07,-190.69 1762.4,-180.1 1755.54,-188.17 1762.07,-190.69"/>
</g>
<!-- 54&#45;&gt;0 -->
<g id="edge12" class="edge">
<title>54&#45;&gt;0</title>
<path fill="none" stroke="grey" stroke-width="2" d="M1580.88,-74.59C1576.19,-73.68 1571.53,-72.81 1567,-72 1450.41,-51.15 1311.41,-32.27 1246.22,-23.76"/>
<polygon fill="grey" stroke="grey" stroke-width="2" points="1246.4,-20.26 1236.04,-22.44 1245.5,-27.2 1246.4,-20.26"/>
</g>
<!-- 55&#45;&gt;0 -->
<g id="edge5" class="edge">
<title>55&#45;&gt;0</title>
<path fill="none" stroke="grey" stroke-width="2" d="M1730.71,-361.34C1796.12,-343.31 1878,-306.47 1878,-235 1878,-235 1878,-235 1878,-161 1878,-30.82 1387.12,-19.47 1246.33,-18.89"/>
<polygon fill="grey" stroke="grey" stroke-width="2" points="1246.06,-15.39 1236.05,-18.87 1246.05,-22.39 1246.06,-15.39"/>
</g>
<!-- 56&#45;&gt;0 -->
<g id="edge2" class="edge">
<title>56&#45;&gt;0</title>
<path fill="none" stroke="grey" stroke-width="2" d="M1854.14,-359.89C1877.38,-334.8 1916,-285.5 1916,-235 1916,-235 1916,-235 1916,-161 1916,-102.16 1871.91,-95.56 1818,-72 1714.5,-26.76 1362.09,-20.11 1246.24,-19.15"/>
<polygon fill="grey" stroke="grey" stroke-width="2" points="1246.13,-15.65 1236.1,-19.08 1246.08,-22.65 1246.13,-15.65"/>
</g>
<!-- 57 -->
<g id="node58" class="node">
<title>57</title>
<path fill="none" stroke="#5663d8" stroke-width="2" d="M1312,-828C1312,-828 1202,-828 1202,-828 1196,-828 1190,-822 1190,-816 1190,-816 1190,-804 1190,-804 1190,-798 1196,-792 1202,-792 1202,-792 1312,-792 1312,-792 1318,-792 1324,-798 1324,-804 1324,-804 1324,-816 1324,-816 1324,-822 1318,-828 1312,-828"/>
<text text-anchor="middle" x="1257" y="-807.5" font-family="sans" font-size="10.00">somatic_msi_aggregate</text>
</g>
<!-- 57&#45;&gt;0 -->
<g id="edge22" class="edge">
<title>57&#45;&gt;0</title>
<path fill="none" stroke="grey" stroke-width="2" d="M1257,-791.95C1257,-765.29 1257,-712.11 1257,-667 1257,-667 1257,-667 1257,-161 1257,-120.55 1252.08,-109.92 1238,-72 1234.6,-62.86 1229.85,-53.36 1225.17,-44.98"/>
<polygon fill="grey" stroke="grey" stroke-width="2" points="1228.04,-42.95 1220,-36.06 1221.99,-46.47 1228.04,-42.95"/>
</g>
<!-- 58&#45;&gt;57 -->
<g id="edge93" class="edge">
<title>58&#45;&gt;57</title>
<path fill="none" stroke="grey" stroke-width="2" d="M1210.53,-1007.97C1220.54,-998.47 1231.73,-985.79 1238,-972 1257.78,-928.49 1259.68,-871.87 1258.72,-838.67"/>
<polygon fill="grey" stroke="grey" stroke-width="2" points="1262.2,-838.21 1258.3,-828.36 1255.21,-838.49 1262.2,-838.21"/>
</g>
<!-- 59&#45;&gt;0 -->
<g id="edge21" class="edge">
<title>59&#45;&gt;0</title>
<path fill="none" stroke="grey" stroke-width="2" d="M1173.62,-71.7C1179.14,-63.47 1185.85,-53.48 1191.93,-44.42"/>
<polygon fill="grey" stroke="grey" stroke-width="2" points="1194.85,-46.36 1197.52,-36.1 1189.04,-42.46 1194.85,-46.36"/>
</g>
<!-- 60&#45;&gt;0 -->
<g id="edge3" class="edge">
<title>60&#45;&gt;0</title>
<path fill="none" stroke="grey" stroke-width="2" d="M997.08,-143.93C995.85,-124.09 997.09,-91.57 1015,-72 1035.96,-49.09 1121.43,-32.43 1171.66,-24.4"/>
<polygon fill="grey" stroke="grey" stroke-width="2" points="1172.47,-27.81 1181.81,-22.81 1171.39,-20.9 1172.47,-27.81"/>
</g>
<!-- 61&#45;&gt;0 -->
<g id="edge11" class="edge">
<title>61&#45;&gt;0</title>
<path fill="none" stroke="grey" stroke-width="2" d="M801.01,-77.28C908.7,-61.9 1093.26,-35.53 1171.83,-24.31"/>
<polygon fill="grey" stroke="grey" stroke-width="2" points="1172.35,-27.77 1181.76,-22.89 1171.36,-20.84 1172.35,-27.77"/>
</g>
<!-- 62&#45;&gt;61 -->
<g id="edge100" class="edge">
<title>62&#45;&gt;61</title>
<path fill="none" stroke="grey" stroke-width="2" d="M719,-143.7C719,-135.98 719,-126.71 719,-118.11"/>
<polygon fill="grey" stroke="grey" stroke-width="2" points="722.5,-118.1 719,-108.1 715.5,-118.1 722.5,-118.1"/>
</g>
</g>
</svg>
